# xmcd CD database file
#
# Track frame offsets:
#	150
#	16089
#	34076
#	44757
#	70392
#	86543
#	107975
#	141251
#	164263
#	184469
#	208999
#	224481
#
# Disc length: 3232 seconds
#
# Revision: 0
# Processed by: cddbd v1.4PL0 Copyright (c) Steve Scherf et al.
# Submitted via: CDex 1.50beta9
#
DISCID=bb0c9e0c
DTITLE=Jazz Trio 57 plus - New Songs
DYEAR=1900
DGENRE=Jazz
TTITLE0=Stop!
TTITLE1=Nevertheless
TTITLE2=That Magic Word
TTITLE3=Fly, Little Butterfly Fly
TTITLE4=And Something Wonderful
TTITLE5=Since
TTITLE6=What A Thrill
TTITLE7=You, My One And Only Love
TTITLE8=One Way Love
TTITLE9=It's Time
TTITLE10=The Perfect Pair
TTITLE11=Let's Praise The Lord
EXTD=
EXTT0=
EXTT1=
EXTT2=
EXTT3=
EXTT4=
EXTT5=
EXTT6=
EXTT7=
EXTT8=
EXTT9=
EXTT10=
EXTT11=
PLAYORDER=
